HIERARCHY
ROOT hip
{
  OFFSET 0 0 0
  CHANNELS 6 Xposition Yposition Zposition Zrotation Yrotation Xrotation
  JOINT abdomen
  {
    OFFSET 0 20.6881 -0.73152
    CHANNELS 3 Zrotation Xrotation Yrotation
    JOINT chest
    {
      OFFSET 0 11.7043 -0.48768
      CHANNELS 3 Zrotation Xrotation Yrotation
      JOINT neck
      {
        OFFSET 0 22.1894 -2.19456
        CHANNELS 3 Zrotation Xrotation Yrotation
        JOINT head
        {
          OFFSET -0.24384 7.07133 1.2192
          CHANNELS 3 Zrotation Xrotation Yrotation
          JOINT leftEye
          {
            OFFSET 4.14528 8.04674 8.04672
            CHANNELS 3 Zrotation Xrotation Yrotation
            End Site
            {
              OFFSET 1 0 0
            }
          }
          JOINT rightEye
          {
            OFFSET -3.6576 8.04674 8.04672
            CHANNELS 3 Zrotation Xrotation Yrotation
            End Site
            {
              OFFSET 1 0 0
            }
          }
        }
      }
      JOINT rCollar
      {
        OFFSET -2.68224 19.2634 -4.8768
        CHANNELS 3 Zrotation Xrotation Yrotation
        JOINT rShldr
        {
          OFFSET -8.77824 -1.95073 1.46304
          CHANNELS 3 Zrotation Xrotation Yrotation
          JOINT rForeArm
          {
            OFFSET -28.1742 -1.7115 0.48768
            CHANNELS 3 Zrotation Xrotation Yrotation
            JOINT rHand
            {
              OFFSET -22.5879 0.773209 7.07136
              CHANNELS 3 Zrotation Xrotation Yrotation
              JOINT rThumb1
              {
                OFFSET -1.2192 -0.487915 3.41376
                CHANNELS 3 Zrotation Xrotation Yrotation
                JOINT rThumb2
                {
                  OFFSET -3.37035 -0.52449 3.41376
                  CHANNELS 3 Zrotation Xrotation Yrotation
                  End Site
                  {
                    OFFSET -1.78271 -1.18214 1.43049
                  }
                }
              }
              JOINT rIndex1
              {
                OFFSET -7.75947 0.938293 5.60832
                CHANNELS 3 Zrotation Xrotation Yrotation
                JOINT rIndex2
                {
                  OFFSET -2.54057 -0.884171 1.56538
                  CHANNELS 3 Zrotation Xrotation Yrotation
                  End Site
                  {
                    OFFSET -1.62519 -0.234802 1.16502
                  }
                }
              }
              JOINT rMid1
              {
                OFFSET -8.24714 1.18213 3.41376
                CHANNELS 3 Zrotation Xrotation Yrotation
                JOINT rMid2
                {
                  OFFSET -3.10165 -0.590103 1.0647
                  CHANNELS 3 Zrotation Xrotation Yrotation
                  End Site
                  {
                    OFFSET -2.48547 -0.328903 0.83742
                  }
                }
              }
              JOINT rRing1
              {
                OFFSET -8.82822 0.546677 1.51678
                CHANNELS 3 Zrotation Xrotation Yrotation
                JOINT rRing2
                {
                  OFFSET -2.60934 -0.819778 -0.0198488
                  CHANNELS 3 Zrotation Xrotation Yrotation
                  End Site
                  {
                    OFFSET -2.33842 -0.294052 0.168128
                  }
                }
              }
              JOINT rPinky1
              {
                OFFSET -8.27202 -0.0477905 -0.4584
                CHANNELS 3 Zrotation Xrotation Yrotation
                JOINT rPinky2
                {
                  OFFSET -1.82734 -0.647385 -0.700984
                  CHANNELS 3 Zrotation Xrotation Yrotation
                  End Site
                  {
                    OFFSET -1.69225 -0.51767 -0.607171
                  }
                }
              }
            }
          }
        }
      }
      JOINT lCollar
      {
        OFFSET 2.68224 19.2634 -4.8768
        CHANNELS 3 Zrotation Xrotation Yrotation
        JOINT lShldr
        {
          OFFSET 8.77824 -1.95073 1.46304
          CHANNELS 3 Zrotation Xrotation Yrotation
          JOINT lForeArm
          {
            OFFSET 28.1742 -1.7115 0.48768
            CHANNELS 3 Zrotation Xrotation Yrotation
            JOINT lHand
            {
              OFFSET 22.5879 0.773209 7.07136
              CHANNELS 3 Zrotation Xrotation Yrotation
              JOINT lThumb1
              {
                OFFSET 1.2192 -0.487915 3.41376
                CHANNELS 3 Zrotation Xrotation Yrotation
                JOINT lThumb2
                {
                  OFFSET 3.37035 -0.52449 3.41376
                  CHANNELS 3 Zrotation Xrotation Yrotation
                  End Site
                  {
                    OFFSET 1.78271 -1.18214 1.43049
                  }
                }
              }
              JOINT lIndex1
              {
                OFFSET 7.75947 0.938293 5.60832
                CHANNELS 3 Zrotation Xrotation Yrotation
                JOINT lIndex2
                {
                  OFFSET 2.54057 -0.884171 1.56538
                  CHANNELS 3 Zrotation Xrotation Yrotation
                  End Site
                  {
                    OFFSET 1.62519 -0.234802 1.16502
                  }
                }
              }
              JOINT lMid1
              {
                OFFSET 8.24714 1.18213 3.41376
                CHANNELS 3 Zrotation Xrotation Yrotation
                JOINT lMid2
                {
                  OFFSET 3.10165 -0.590103 1.0647
                  CHANNELS 3 Zrotation Xrotation Yrotation
                  End Site
                  {
                    OFFSET 2.48547 -0.328903 0.83742
                  }
                }
              }
              JOINT lRing1
              {
                OFFSET 8.82822 0.546677 1.51678
                CHANNELS 3 Zrotation Xrotation Yrotation
                JOINT lRing2
                {
                  OFFSET 2.60934 -0.819778 -0.0198488
                  CHANNELS 3 Zrotation Xrotation Yrotation
                  End Site
                  {
                    OFFSET 2.33842 -0.294052 0.168128
                  }
                }
              }
              JOINT lPinky1
              {
                OFFSET 8.27202 -0.0477905 -0.4584
                CHANNELS 3 Zrotation Xrotation Yrotation
                JOINT lPinky2
                {
                  OFFSET 1.82734 -0.647385 -0.700984
                  CHANNELS 3 Zrotation Xrotation Yrotation
                  End Site
                  {
                    OFFSET 1.69225 -0.51767 -0.607171
                  }
                }
              }
            }
          }
        }
      }
    }
  }
  JOINT rButtock
  {
    OFFSET -8.77824 4.35084 1.2192
    CHANNELS 3 Zrotation Xrotation Yrotation
    JOINT rThigh
    {
      OFFSET 0 -1.70687 -2.19456
      CHANNELS 3 Zrotation Xrotation Yrotation
      JOINT rShin
      {
        OFFSET 0 -36.8199 0.73152
        CHANNELS 3 Zrotation Xrotation Yrotation
        JOINT rFoot
        {
          OFFSET 0.73152 -45.1104 -5.12064
          CHANNELS 3 Zrotation Xrotation Yrotation
          End Site
          {
            OFFSET -1.1221 -3.69964 12.103
          }
        }
      }
    }
  }
  JOINT lButtock
  {
    OFFSET 8.77824 4.35084 1.2192
    CHANNELS 3 Zrotation Xrotation Yrotation
    JOINT lThigh
    {
      OFFSET 0 -1.70687 -2.19456
      CHANNELS 3 Zrotation Xrotation Yrotation
      JOINT lShin
      {
        OFFSET 0 -36.8199 0.73152
        CHANNELS 3 Zrotation Xrotation Yrotation
        JOINT lFoot
        {
          OFFSET -0.73152 -45.1104 -5.12064
          CHANNELS 3 Zrotation Xrotation Yrotation
          End Site
          {
            OFFSET 1.1221 -3.69964 12.103
          }
        }
      }
    }
  }
}
MOTION
Frames:	6
Frame Time:	0.00833333
31.305 72.3275 73.1237 4.73 42.0328 5.5187 -4.40206 10.617 -8.62465 -0.513653 -7.44063 -2.64173 -0.829993 -2.18095 -1.50779 -2.47901 29.4497 -1.10553 -0.0 0.0 0.0 -0.0 0.0 0.0 1.13981e-13 -1.25632e-13 -1.89342e-14 51.0771 44.0862 12.792 -20.4059 -13.531 39.6746 -0.170247 -11.6783 -1.66462 -4.06392e-10 -2.35914e-09 5.88174e-10 -7.10666e-10 -4.07799e-09 1.01616e-09 -4.06389e-10 -2.35915e-09 5.88161e-10 7.73091 5.47488 0.417314 -4.06391e-10 -2.35915e-09 5.88177e-10 2.90554 0.965183 0.102902 -4.06386e-10 -2.35914e-09 5.88174e-10 10.2786 0.731801 0.0259123 -4.06395e-10 -2.35914e-09 5.88177e-10 2.22167 -0.733487 -0.20892 1.13834e-13 -1.25632e-13 -1.91827e-14 -35.0139 31.7873 -51.9471 28.4115 -34.552 -74.606 0.870135 -25.5012 3.84389 2.12957e-10 -2.34941e-09 7.76676e-10 3.50297e-10 -4.0334e-09 1.34955e-09 2.12957e-10 -2.34941e-09 7.76691e-10 -7.73091 5.47488 -0.417314 2.12959e-10 -2.34941e-09 7.76688e-10 -2.90554 0.965183 -0.102902 2.12955e-10 -2.34941e-09 7.76687e-10 -10.2786 0.731801 -0.0259123 2.12956e-10 -2.34941e-09 7.76691e-10 -2.22167 -0.733487 0.20892 -2.03217e-16 0.0 -3.88251e-19 0.752033 -47.0981 8.3127 -3.56076 76.971 4.21591 7.26075 -35.526 7.94028 2.03217e-16 0.0 3.88251e-19 18.2421 -1.83985 -12.558 1.34754 68.364 -3.35698 -1.9111 -10.6588 -5.56752
31.113 72.7031 75.1301 4.9507 42.9487 5.614 -4.39975 10.616 -8.74268 -0.475132 -7.38174 -2.66142 -0.916374 -2.05372 -1.64953 -2.27565 29.3967 -1.39093 -0.0 0.0 0.0 -0.0 0.0 0.0 1.11902e-13 -7.72189e-14 -3.35146e-13 51.388 43.8513 12.1377 -20.591 -13.7738 40.134 -0.177597 -11.9225 -1.70046 3.27524e-10 -3.96027e-09 9.72755e-10 5.52255e-10 -6.85913e-09 1.68771e-09 3.27527e-10 -3.96028e-09 9.72742e-10 7.73091 5.47488 0.417314 3.27525e-10 -3.96028e-09 9.7276e-10 2.90554 0.965183 0.102902 3.2753e-10 -3.96027e-09 9.72757e-10 10.2786 0.731801 0.0259123 3.2752e-10 -3.96027e-09 9.7276e-10 2.22167 -0.733487 -0.20892 1.11763e-13 -7.72191e-14 -3.35375e-13 -34.9694 32.1505 -52.5071 28.4145 -34.6284 -74.731 0.843043 -25.1315 3.78023 1.42963e-10 -1.0279e-09 2.16621e-10 2.37578e-10 -1.77574e-09 3.85055e-10 1.42963e-10 -1.0279e-09 2.16635e-10 -7.73091 5.47488 -0.417314 1.42965e-10 -1.0279e-09 2.16631e-10 -2.90554 0.965183 -0.102902 1.42961e-10 -1.0279e-09 2.1663e-10 -10.2786 0.731801 -0.0259123 1.42963e-10 -1.02789e-09 2.16633e-10 -2.22167 -0.733487 0.20892 -2.03217e-16 0.0 -3.88251e-19 0.770142 -46.1007 7.61575 -3.31934 76.1958 3.94153 6.76804 -36.1419 7.29296 2.03217e-16 0.0 3.88251e-19 17.6169 -4.37878 -11.2202 1.81723 71.7303 -3.75663 -2.4378 -12.7623 -6.90949
30.93 73.0786 77.1427 5.2361 43.9093 5.7774 -4.57418 10.5486 -8.87726 -0.385656 -7.3048 -2.68566 -1.00538 -1.90933 -1.79432 -2.092 29.3089 -1.67779 -0.0 0.0 0.0 -0.0 0.0 0.0 7.57723e-14 1.78656e-14 -6.88689e-13 51.768 43.5779 11.4114 -20.7771 -14.0215 40.6018 -0.18499 -12.1628 -1.73579 1.3026e-09 -5.08071e-09 1.27943e-09 2.23323e-09 -8.81162e-09 2.22587e-09 1.30261e-09 -5.08071e-09 1.27941e-09 7.73091 5.47488 0.417314 1.3026e-09 -5.08072e-09 1.27943e-09 2.90554 0.965183 0.102902 1.30261e-09 -5.08071e-09 1.27943e-09 10.2786 0.731801 0.0259123 1.3026e-09 -5.08071e-09 1.27943e-09 2.22167 -0.733487 -0.20892 7.56507e-14 1.78649e-14 -6.88888e-13 -34.9789 32.588 -52.9702 28.4181 -34.7316 -74.901 0.819119 -24.8021 3.72374 -1.17254e-10 1.68617e-09 -7.3766e-10 -1.963e-10 2.87889e-09 -1.26419e-09 -1.17254e-10 1.68617e-09 -7.3765e-10 -7.73091 5.47488 -0.417314 -1.17251e-10 1.68617e-09 -7.37654e-10 -2.90554 0.965183 -0.102902 -1.17256e-10 1.68617e-09 -7.37656e-10 -10.2786 0.731801 -0.0259123 -1.17253e-10 1.68618e-09 -7.37656e-10 -2.22167 -0.733487 0.20892 -2.03217e-16 0.0 -3.88251e-19 0.558931 -45.1956 6.78525 -3.11979 75.4679 3.70398 6.3238 -36.6996 6.7525 2.03217e-16 0.0 3.88251e-19 16.7898 -6.93927 -9.89969 2.45009 74.9017 -4.29668 -2.89669 -14.8142 -7.65413
30.7377 73.4219 79.1485 5.5627 44.913 5.9929 -4.79838 10.4632 -9.00627 -0.273023 -7.22307 -2.70814 -1.09714 -1.75569 -1.94592 -1.91767 29.2204 -1.9744 -0.0 0.0 0.0 -0.0 0.0 0.0 2.49858e-14 1.16441e-13 -9.25248e-13 52.2245 43.2629 10.6077 -20.9648 -14.2756 41.0779 -0.192658 -12.4076 -1.77185 2.07535e-09 -5.36597e-09 1.37879e-09 3.56745e-09 -9.31613e-09 2.40358e-09 2.07536e-09 -5.36597e-09 1.37878e-09 7.73091 5.47488 0.417314 2.07535e-09 -5.36599e-09 1.3788e-09 2.90554 0.965183 0.102902 2.07536e-09 -5.36597e-09 1.37879e-09 10.2786 0.731801 0.0259123 2.07535e-09 -5.36597e-09 1.3788e-09 2.22167 -0.733487 -0.20892 2.48883e-14 1.1644e-13 -9.25417e-13 -35.0437 33.0831 -53.3492 28.4216 -34.8479 -75.0937 0.798906 -24.5197 3.67554 -3.80156e-10 4.16125e-09 -1.56278e-09 -6.36403e-10 7.12762e-09 -2.69204e-09 -3.80157e-10 4.16125e-09 -1.56277e-09 -7.73091 5.47488 -0.417314 -3.80154e-10 4.16125e-09 -1.56278e-09 -2.90554 0.965183 -0.102902 -3.80159e-10 4.16125e-09 -1.56278e-09 -10.2786 0.731801 -0.0259123 -3.80154e-10 4.16126e-09 -1.56278e-09 -2.22167 -0.733487 0.20892 -2.03217e-16 0.0 -3.88251e-19 0.305941 -44.3257 5.92198 -2.94653 74.7639 3.49341 5.88755 -37.225 6.2465 2.03217e-16 0.0 3.88251e-19 15.9558 -9.40565 -8.56896 3.30274 77.794 -5.04917 -3.25743 -16.7943 -7.9685
30.5542 73.7501 81.2088 5.7332 45.9005 6.055 -4.9448 10.4083 -9.10766 -0.165083 -7.14984 -2.72256 -1.19182 -1.60072 -2.10812 -1.7415 29.1656 -2.2894 -0.0 0.0 0.0 -0.0 0.0 0.0 -2.10616e-14 1.75328e-13 -8.90506e-13 52.7644 42.9031 9.72195 -21.1547 -14.5372 41.5627 -0.200879 -12.6655 -1.8099 2.20229e-09 -4.46158e-09 1.14146e-09 3.79009e-09 -7.75335e-09 1.99382e-09 2.20229e-09 -4.46158e-09 1.14144e-09 7.73091 5.47488 0.417314 2.20229e-09 -4.46159e-09 1.14147e-09 2.90554 0.965183 0.102902 2.20229e-09 -4.46158e-09 1.14146e-09 10.2786 0.731801 0.0259123 2.20228e-09 -4.46157e-09 1.14147e-09 2.22167 -0.733487 -0.20892 -2.11318e-14 1.75327e-13 -8.90655e-13 -35.1658 33.619 -53.6558 28.4247 -34.9645 -75.2865 0.782937 -24.2913 3.63677 -4.5821e-10 4.76578e-09 -1.73534e-09 -7.67798e-10 8.16757e-09 -2.99235e-09 -4.58211e-10 4.76579e-09 -1.73534e-09 -7.73091 5.47488 -0.417314 -4.58207e-10 4.76579e-09 -1.73535e-09 -2.90554 0.965183 -0.102902 -4.58213e-10 4.76579e-09 -1.73535e-09 -10.2786 0.731801 -0.0259123 -4.58206e-10 4.76579e-09 -1.73535e-09 -2.22167 -0.733487 0.20892 -2.03217e-16 0.0 -3.88251e-19 0.193877 -43.4372 5.1239 -2.78739 74.0604 3.30338 5.41411 -37.7433 5.69981 2.03217e-16 0.0 3.88251e-19 15.3037 -11.661 -7.19878 4.46175 80.3229 -6.11558 -3.51672 -18.6762 -8.02251
30.3704 74.0653 83.3001 5.8773 46.842 6.0943 -4.98613 10.3901 -9.17429 -0.0682084 -7.09208 -2.72647 -1.29328 -1.44302 -2.28734 -1.56152 29.1557 -2.63401 -0.0 0.0 0.0 -0.0 0.0 0.0 -6.7457e-14 1.78066e-13 -3.93404e-13 53.4063 42.4782 8.72064 -21.3513 -14.8133 42.0682 -0.209725 -12.9357 -1.84985 1.25584e-09 -1.40459e-09 3.0261e-10 2.16575e-09 -2.45115e-09 5.35127e-10 1.25585e-09 -1.40459e-09 3.02598e-10 7.73091 5.47488 0.417314 1.25584e-09 -1.4046e-09 3.02617e-10 2.90554 0.965183 0.102902 1.25585e-09 -1.40459e-09 3.02613e-10 10.2786 0.731801 0.0259123 1.25584e-09 -1.40458e-09 3.02622e-10 2.22167 -0.733487 -0.20892 -6.74911e-14 1.78068e-13 -3.93546e-13 -35.354 34.2073 -53.8947 28.4276 -35.0824 -75.4808 0.771067 -24.1183 3.60754 -2.40775e-10 2.30945e-09 -8.30352e-10 -4.06272e-10 3.95766e-09 -1.43106e-09 -2.40776e-10 2.30945e-09 -8.30349e-10 -7.73091 5.47488 -0.417314 -2.40773e-10 2.30945e-09 -8.30355e-10 -2.90554 0.965183 -0.102902 -2.40779e-10 2.30946e-09 -8.30356e-10 -10.2786 0.731801 -0.0259123 -2.4077e-10 2.30946e-09 -8.30362e-10 -2.22167 -0.733487 0.20892 -2.03217e-16 0.0 -3.88251e-19 0.253088 -42.529 4.39268 -2.63858 73.3578 3.13092 4.88008 -38.2603 5.08363 2.03217e-16 0.0 3.88251e-19 14.83 -13.7021 -5.74537 6.11947 82.4954 -7.68735 -3.60422 -20.5084 -7.68956
